<svg xmlns="http://www.w3.org/2000/svg" viewBox="0 0 32 32" shape-rendering="crispEdges"><polygon points="9,9 13,6 20,6 24,10 25,18 7,18" fill="#304e60"/><polygon points="10,10 14,7 20,7 23,11 24,17 8,17" fill="#b4a5da"/><rect x="12" y="9" width="6" height="2" fill="#fff5dc"/><rect x="12" y="13" width="2" height="3" fill="#304e60"/><rect x="12" y="13" width="1" height="1" fill="#fff5dc"/><rect x="20" y="13" width="2" height="3" fill="#304e60"/><rect x="20" y="13" width="1" height="1" fill="#fff5dc"/><rect x="10" y="19" width="2" height="6" fill="#b4a5da"/><rect x="16" y="19" width="2" height="9" fill="#b4a5da"/><rect x="22" y="19" width="2" height="5" fill="#b4a5da"/><rect x="12" y="24" width="2" height="2" fill="#b4a5da"/></svg>